<svg width="23" height="15" viewBox="0 0 23 15" fill="none" xmlns="http://www.w3.org/2000/svg">
<path fill-rule="evenodd" clip-rule="evenodd" d="M22.4374 7.50001C22.4374 7.29281 22.3551 7.0941 22.2086 6.94758C22.0621 6.80107 21.8634 6.71876 21.6562 6.71876H3.22962L8.14681 1.80314C8.21944 1.7305 8.27706 1.64427 8.31637 1.54936C8.35569 1.45445 8.37592 1.35274 8.37592 1.25001C8.37592 1.14729 8.35569 1.04557 8.31637 0.950661C8.27706 0.855756 8.21944 0.769523 8.14681 0.696885C8.07417 0.624248 7.98794 0.566629 7.89303 0.527318C7.79813 0.488007 7.69641 0.467773 7.59368 0.467773C7.49096 0.467773 7.38924 0.488007 7.29433 0.527318C7.19943 0.566629 7.11319 0.624248 7.04056 0.696885L0.790557 6.94688C0.717802 7.01946 0.660078 7.10567 0.620693 7.20058C0.581308 7.2955 0.561035 7.39725 0.561035 7.50001C0.561035 7.60277 0.581308 7.70452 0.620693 7.79944C0.660078 7.89435 0.717802 7.98056 0.790557 8.05314L7.04056 14.3031C7.11319 14.3758 7.19943 14.4334 7.29433 14.4727C7.38924 14.512 7.49096 14.5322 7.59368 14.5322C7.69641 14.5322 7.79813 14.512 7.89303 14.4727C7.98794 14.4334 8.07417 14.3758 8.14681 14.3031C8.21944 14.2305 8.27706 14.1443 8.31637 14.0494C8.35569 13.9545 8.37592 13.8527 8.37592 13.75C8.37592 13.6473 8.35569 13.5456 8.31637 13.4507C8.27706 13.3558 8.21944 13.2695 8.14681 13.1969L3.22962 8.28126H21.6562C21.8634 8.28126 22.0621 8.19895 22.2086 8.05244C22.3551 7.90592 22.4374 7.70721 22.4374 7.50001Z" fill="#999999"/>
</svg>
