<svg width="25" height="25" viewBox="0 0 25 25" fill="none" xmlns="http://www.w3.org/2000/svg">
<g clip-path="url(#clip0_109_115)">
<path d="M14.0625 7.8125C14.0625 9.0557 13.5686 10.248 12.6896 11.1271C11.8105 12.0061 10.6182 12.5 9.375 12.5C8.1318 12.5 6.93951 12.0061 6.06044 11.1271C5.18136 10.248 4.6875 9.0557 4.6875 7.8125C4.6875 6.5693 5.18136 5.37701 6.06044 4.49794C6.93951 3.61886 8.1318 3.125 9.375 3.125C10.6182 3.125 11.8105 3.61886 12.6896 4.49794C13.5686 5.37701 14.0625 6.5693 14.0625 7.8125ZM0 20.3125C0 21.875 1.5625 21.875 1.5625 21.875H17.1875C17.1875 21.875 18.75 21.875 18.75 20.3125C18.75 18.75 17.1875 14.0625 9.375 14.0625C1.5625 14.0625 0 18.75 0 20.3125ZM21.0938 7.67188C23.2609 5.44531 28.6797 9.34375 21.0938 14.3547C13.5094 9.34375 18.9266 5.44375 21.0938 7.67188Z" fill="black"/>
</g>
<defs>
<clipPath id="clip0_109_115">
<rect width="25" height="25" fill="white"/>
</clipPath>
</defs>
</svg>
