<svg width="12" height="12" viewBox="0 0 12 12" fill="none" xmlns="http://www.w3.org/2000/svg">
<g clip-path="url(#clip0_999_110)">
<path d="M9.10935 0.109278C9.14419 0.0743553 9.18557 0.0466481 9.23113 0.0277433C9.27669 0.00883846 9.32553 -0.000892639 9.37486 -0.000892639C9.42418 -0.000892639 9.47302 0.00883846 9.51858 0.0277433C9.56414 0.0466481 9.60552 0.0743553 9.64036 0.109278L11.8904 2.35928C11.9253 2.39411 11.953 2.43549 11.9719 2.48105C11.9908 2.52661 12.0005 2.57545 12.0005 2.62478C12.0005 2.6741 11.9908 2.72294 11.9719 2.7685C11.953 2.81406 11.9253 2.85544 11.8904 2.89028L4.39035 10.3903C4.35437 10.426 4.3115 10.4541 4.26435 10.4728L0.514355 11.9728C0.446207 12.0001 0.371551 12.0067 0.299644 11.992C0.227737 11.9772 0.16174 11.9417 0.109835 11.8898C0.0579302 11.8379 0.0224001 11.7719 0.00764952 11.7C-0.00710107 11.6281 -0.000423445 11.5534 0.0268546 11.4853L1.52685 7.73528C1.54555 7.68813 1.57362 7.64527 1.60935 7.60928L9.10935 0.109278ZM8.4051 1.87478L10.1249 3.59453L11.0946 2.62478L9.37486 0.905028L8.4051 1.87478ZM9.5946 4.12478L7.87486 2.40503L2.99985 7.28003V7.49978H3.37485C3.47431 7.49978 3.56969 7.53929 3.64002 7.60961C3.71035 7.67994 3.74985 7.77532 3.74985 7.87478V8.24978H4.12485C4.22431 8.24978 4.31969 8.28929 4.39002 8.35961C4.46035 8.42994 4.49985 8.52532 4.49985 8.62478V8.99978H4.7196L9.5946 4.12478ZM2.27385 8.00603L2.19435 8.08553L1.04835 10.9513L3.9141 9.80528L3.9936 9.72578C3.92207 9.69905 3.8604 9.65112 3.81684 9.5884C3.77328 9.52567 3.74991 9.45114 3.74985 9.37478V8.99978H3.37485C3.2754 8.99978 3.18002 8.96027 3.10969 8.88994C3.03936 8.81962 2.99985 8.72423 2.99985 8.62478V8.24978H2.62485C2.54849 8.24972 2.47396 8.22635 2.41124 8.18279C2.34851 8.13923 2.30058 8.07756 2.27385 8.00603Z" fill="#24B47B"/>
</g>
<defs>
<clipPath id="clip0_999_110">
<rect width="12" height="12" fill="white"/>
</clipPath>
</defs>
</svg>
