<svg width="21" height="20" viewBox="0 0 21 20" fill="none" xmlns="http://www.w3.org/2000/svg">
<g clip-path="url(#clip0_60_71)">
<path d="M11.7837 1.87499C11.5493 1.64065 11.2314 1.509 10.9 1.509C10.5685 1.509 10.2506 1.64065 10.0162 1.87499L1.70746 10.1825C1.64935 10.2406 1.60325 10.3096 1.57181 10.3855C1.54036 10.4614 1.52417 10.5428 1.52417 10.625C1.52417 10.7072 1.54036 10.7885 1.57181 10.8645C1.60325 10.9404 1.64935 11.0094 1.70746 11.0675C1.82482 11.1848 1.98399 11.2508 2.14996 11.2508C2.23214 11.2508 2.31351 11.2346 2.38944 11.2031C2.46536 11.1717 2.53435 11.1256 2.59246 11.0675L3.39996 10.2587V16.875C3.39996 17.3723 3.5975 17.8492 3.94913 18.2008C4.30077 18.5524 4.77768 18.75 5.27496 18.75H16.525C17.0222 18.75 17.4992 18.5524 17.8508 18.2008C18.2024 17.8492 18.4 17.3723 18.4 16.875V10.2587L19.2075 11.0675C19.3248 11.1848 19.484 11.2508 19.65 11.2508C19.8159 11.2508 19.9751 11.1848 20.0925 11.0675C20.2098 10.9501 20.2757 10.791 20.2757 10.625C20.2757 10.459 20.2098 10.2998 20.0925 10.1825L17.15 7.24124V3.12499C17.15 2.95923 17.0841 2.80025 16.9669 2.68304C16.8497 2.56583 16.6907 2.49999 16.525 2.49999H15.275C15.1092 2.49999 14.9502 2.56583 14.833 2.68304C14.7158 2.80025 14.65 2.95923 14.65 3.12499V4.74124L11.7837 1.87499ZM17.15 9.00874V16.875C17.15 17.0407 17.0841 17.1997 16.9669 17.3169C16.8497 17.4341 16.6907 17.5 16.525 17.5H5.27496C5.1092 17.5 4.95023 17.4341 4.83302 17.3169C4.71581 17.1997 4.64996 17.0407 4.64996 16.875V9.00874L10.9 2.75874L17.15 9.00874Z" fill="#999999"/>
</g>
<defs>
<clipPath id="clip0_60_71">
<rect width="20" height="20" fill="white" transform="translate(0.899902)"/>
</clipPath>
</defs>
</svg>
