<svg width="25" height="25" viewBox="0 0 25 25" fill="none" xmlns="http://www.w3.org/2000/svg">
<path d="M12.5 1.5625C13.3288 1.5625 14.1237 1.89174 14.7097 2.47779C15.2958 3.06384 15.625 3.8587 15.625 4.6875V10.9375H9.375V4.6875C9.375 3.8587 9.70424 3.06384 10.2903 2.47779C10.8763 1.89174 11.6712 1.5625 12.5 1.5625ZM17.1875 10.9375V4.6875C17.1875 3.4443 16.6936 2.25201 15.8146 1.37294C14.9355 0.49386 13.7432 0 12.5 0C11.2568 0 10.0645 0.49386 9.18544 1.37294C8.30636 2.25201 7.8125 3.4443 7.8125 4.6875V10.9375C6.9837 10.9375 6.18884 11.2667 5.60279 11.8528C5.01674 12.4388 4.6875 13.2337 4.6875 14.0625V21.875C4.6875 22.7038 5.01674 23.4987 5.60279 24.0847C6.18884 24.6708 6.9837 25 7.8125 25H17.1875C18.0163 25 18.8112 24.6708 19.3972 24.0847C19.9833 23.4987 20.3125 22.7038 20.3125 21.875V14.0625C20.3125 13.2337 19.9833 12.4388 19.3972 11.8528C18.8112 11.2667 18.0163 10.9375 17.1875 10.9375ZM7.8125 12.5H17.1875C17.6019 12.5 17.9993 12.6646 18.2924 12.9576C18.5854 13.2507 18.75 13.6481 18.75 14.0625V21.875C18.75 22.2894 18.5854 22.6868 18.2924 22.9799C17.9993 23.2729 17.6019 23.4375 17.1875 23.4375H7.8125C7.3981 23.4375 7.00067 23.2729 6.70765 22.9799C6.41462 22.6868 6.25 22.2894 6.25 21.875V14.0625C6.25 13.6481 6.41462 13.2507 6.70765 12.9576C7.00067 12.6646 7.3981 12.5 7.8125 12.5Z" fill="black"/>
</svg>
