<svg width="25" height="25" viewBox="0 0 25 25" fill="none" xmlns="http://www.w3.org/2000/svg">
<g clip-path="url(#clip0_109_76)">
<path d="M22.6562 4.6875C22.8635 4.6875 23.0622 4.76981 23.2087 4.91632C23.3552 5.06284 23.4375 5.26155 23.4375 5.46875V19.5312C23.4375 19.7385 23.3552 19.9372 23.2087 20.0837C23.0622 20.2302 22.8635 20.3125 22.6562 20.3125H2.34375C2.13655 20.3125 1.93784 20.2302 1.79132 20.0837C1.64481 19.9372 1.5625 19.7385 1.5625 19.5312V5.46875C1.5625 5.26155 1.64481 5.06284 1.79132 4.91632C1.93784 4.76981 2.13655 4.6875 2.34375 4.6875H22.6562ZM2.34375 3.125C1.72215 3.125 1.12601 3.37193 0.686468 3.81147C0.24693 4.25101 0 4.84715 0 5.46875L0 19.5312C0 20.1529 0.24693 20.749 0.686468 21.1885C1.12601 21.6281 1.72215 21.875 2.34375 21.875H22.6562C23.2779 21.875 23.874 21.6281 24.3135 21.1885C24.7531 20.749 25 20.1529 25 19.5312V5.46875C25 4.84715 24.7531 4.25101 24.3135 3.81147C23.874 3.37193 23.2779 3.125 22.6562 3.125H2.34375Z" fill="black"/>
<path d="M10.9375 8.59375C10.9375 8.38655 11.0198 8.18784 11.1663 8.04132C11.3128 7.89481 11.5116 7.8125 11.7188 7.8125H19.5313C19.7385 7.8125 19.9372 7.89481 20.0837 8.04132C20.2302 8.18784 20.3125 8.38655 20.3125 8.59375C20.3125 8.80095 20.2302 8.99966 20.0837 9.14618C19.9372 9.29269 19.7385 9.375 19.5313 9.375H11.7188C11.5116 9.375 11.3128 9.29269 11.1663 9.14618C11.0198 8.99966 10.9375 8.80095 10.9375 8.59375ZM8.60001 7.25937C8.67277 7.33195 8.73049 7.41816 8.76987 7.51307C8.80926 7.60799 8.82953 7.70974 8.82953 7.8125C8.82953 7.91526 8.80926 8.01701 8.76987 8.11193C8.73049 8.20684 8.67277 8.29305 8.60001 8.36563L6.25626 10.7094C6.18369 10.7821 6.09748 10.8399 6.00256 10.8792C5.90765 10.9186 5.8059 10.9389 5.70314 10.9389C5.60037 10.9389 5.49862 10.9186 5.40371 10.8792C5.30879 10.8399 5.22258 10.7821 5.15001 10.7094L4.36876 9.92813C4.29612 9.85549 4.2385 9.76925 4.19919 9.67435C4.15988 9.57944 4.13965 9.47772 4.13965 9.375C4.13965 9.16754 4.22206 8.96857 4.36876 8.82187C4.51546 8.67518 4.71442 8.59276 4.92189 8.59276C5.12935 8.59276 5.32831 8.67518 5.47501 8.82187L5.70314 9.05156L7.49376 7.25937C7.56633 7.18662 7.65254 7.1289 7.74746 7.08951C7.84237 7.05013 7.94412 7.02985 8.04689 7.02985C8.14965 7.02985 8.2514 7.05013 8.34631 7.08951C8.44123 7.1289 8.52744 7.18662 8.60001 7.25937ZM10.9375 14.8438C10.9375 14.6365 11.0198 14.4378 11.1663 14.2913C11.3128 14.1448 11.5116 14.0625 11.7188 14.0625H19.5313C19.7385 14.0625 19.9372 14.1448 20.0837 14.2913C20.2302 14.4378 20.3125 14.6365 20.3125 14.8438C20.3125 15.051 20.2302 15.2497 20.0837 15.3962C19.9372 15.5427 19.7385 15.625 19.5313 15.625H11.7188C11.5116 15.625 11.3128 15.5427 11.1663 15.3962C11.0198 15.2497 10.9375 15.051 10.9375 14.8438ZM8.60001 13.5094C8.67277 13.5819 8.73049 13.6682 8.76987 13.7631C8.80926 13.858 8.82953 13.9597 8.82953 14.0625C8.82953 14.1653 8.80926 14.267 8.76987 14.3619C8.73049 14.4568 8.67277 14.5431 8.60001 14.6156L6.25626 16.9594C6.18369 17.0321 6.09748 17.0899 6.00256 17.1292C5.90765 17.1686 5.8059 17.1889 5.70314 17.1889C5.60037 17.1889 5.49862 17.1686 5.40371 17.1292C5.30879 17.0899 5.22258 17.0321 5.15001 16.9594L4.36876 16.1781C4.29612 16.1055 4.2385 16.0193 4.19919 15.9243C4.15988 15.8294 4.13965 15.7277 4.13965 15.625C4.13965 15.5223 4.15988 15.4206 4.19919 15.3257C4.2385 15.2307 4.29612 15.1445 4.36876 15.0719C4.4414 14.9992 4.52763 14.9416 4.62254 14.9023C4.71744 14.863 4.81916 14.8428 4.92189 14.8428C5.02461 14.8428 5.12633 14.863 5.22123 14.9023C5.31614 14.9416 5.40237 14.9992 5.47501 15.0719L5.70314 15.3016L7.49376 13.5094C7.56633 13.4366 7.65254 13.3789 7.74746 13.3395C7.84237 13.3001 7.94412 13.2799 8.04689 13.2799C8.14965 13.2799 8.2514 13.3001 8.34631 13.3395C8.44123 13.3789 8.52744 13.4366 8.60001 13.5094Z" fill="black"/>
</g>
<defs>
<clipPath id="clip0_109_76">
<rect width="25" height="25" fill="white"/>
</clipPath>
</defs>
</svg>
