<svg width="25" height="25" viewBox="0 0 25 25" fill="none" xmlns="http://www.w3.org/2000/svg">
<path d="M24.7705 0.229507C24.8432 0.302074 24.901 0.388281 24.9403 0.483189C24.9797 0.578098 25 0.679843 25 0.782598C25 0.885353 24.9797 0.987099 24.9403 1.08201C24.901 1.17692 24.8432 1.26312 24.7705 1.33569L18.2914 7.81341H22.6551C22.8622 7.81341 23.0609 7.89572 23.2074 8.04222C23.3539 8.18873 23.4362 8.38743 23.4362 8.59461C23.4362 8.8018 23.3539 9.0005 23.2074 9.14701C23.0609 9.29351 22.8622 9.37582 22.6551 9.37582H16.4056C16.1984 9.37582 15.9997 9.29351 15.8532 9.14701C15.7067 9.0005 15.6244 8.8018 15.6244 8.59461V2.345C15.6244 2.13781 15.7067 1.93911 15.8532 1.79261C15.9997 1.6461 16.1984 1.5638 16.4056 1.5638C16.6128 1.5638 16.8115 1.6461 16.958 1.79261C17.1045 1.93911 17.1868 2.13781 17.1868 2.345V6.70879L23.6643 0.229507C23.7369 0.156757 23.8231 0.0990372 23.918 0.0596545C24.0129 0.0202719 24.1147 0 24.2174 0C24.3202 0 24.4219 0.0202719 24.5168 0.0596545C24.6117 0.0990372 24.6979 0.156757 24.7705 0.229507ZM5.70962 2.07627C5.61739 1.95762 5.50097 1.85996 5.36809 1.78976C5.23522 1.71957 5.08893 1.67845 4.93894 1.66914C4.78895 1.65983 4.6387 1.68254 4.49816 1.73576C4.35762 1.78899 4.23002 1.87151 4.12382 1.97784L2.50833 3.59492C1.75371 4.35113 1.47561 5.42137 1.80527 6.36038C3.17504 10.2462 5.40052 13.7746 8.31721 16.6847C11.2273 19.6015 14.7556 21.827 18.6413 23.1968C19.5803 23.5265 20.6505 23.2484 21.4067 22.4938L23.0222 20.8782C23.1285 20.772 23.2111 20.6444 23.2643 20.5039C23.3175 20.3633 23.3402 20.2131 23.3309 20.0631C23.3216 19.9131 23.2805 19.7668 23.2103 19.6339C23.1401 19.501 23.0424 19.3846 22.9238 19.2924L19.3194 16.4894C19.1925 16.3913 19.0451 16.3232 18.8882 16.2902C18.7312 16.2572 18.5689 16.2601 18.4132 16.2988L14.9916 17.1535C14.5349 17.2668 14.0566 17.2604 13.6031 17.1348C13.1495 17.0091 12.7361 16.7686 12.4028 16.4363L8.56563 12.5975C8.23313 12.2643 7.99227 11.851 7.86636 11.3974C7.74045 10.9439 7.73376 10.4655 7.84694 10.0086L8.70312 6.58693C8.7418 6.43129 8.74475 6.26891 8.71174 6.11197C8.67873 5.95503 8.61061 5.8076 8.51251 5.68073L5.70962 2.07627ZM2.94423 0.799784C3.21764 0.526285 3.5461 0.314081 3.90781 0.177263C4.26951 0.0404442 4.65619 -0.0178574 5.04215 0.00622906C5.42812 0.0303155 5.80454 0.136239 6.14643 0.316966C6.48832 0.497692 6.78785 0.749087 7.02514 1.05446L9.82802 4.65736C10.342 5.31825 10.5233 6.17914 10.3202 6.99159L9.46555 10.4133C9.42168 10.5905 9.42422 10.776 9.47293 10.952C9.52164 11.128 9.61488 11.2884 9.74365 11.4179L13.5824 15.2567C13.712 15.3857 13.8727 15.4791 14.049 15.5279C14.2252 15.5766 14.4111 15.579 14.5886 15.5348L18.0086 14.6802C18.4095 14.5805 18.8279 14.573 19.2322 14.6583C19.6364 14.7435 20.0162 14.9193 20.3428 15.1723L23.9456 17.9753C25.2408 18.983 25.3595 20.897 24.2002 22.0547L22.5847 23.6702C21.4286 24.8264 19.7006 25.3342 18.0898 24.7671C13.9662 23.3181 10.2226 20.9575 7.13763 17.8612C4.0416 14.7767 1.68114 11.0335 0.231966 6.91034C-0.333611 5.30107 0.174158 3.57149 1.33031 2.41531L2.94423 0.799784Z" fill="black"/>
</svg>
